<?xml version="1.0" encoding="utf-8"?>
<!-- Generator: Adobe Illustrator 19.0.0, SVG Export Plug-In . SVG Version: 6.00 Build 0)  -->
<svg version="1.1" id="Calque_1" xmlns="http://www.w3.org/2000/svg" xmlns:xlink="http://www.w3.org/1999/xlink" x="0px" y="0px"
	 viewBox="0 0 46.6 100" style="enable-background:new 0 0 46.6 100;" xml:space="preserve">
<style type="text/css">
	.st0{fill:url(#XMLID_51_);}
	.st1{fill:#FFFFFF;}
	.st2{fill:#DBDBDB;}
</style>
<g id="XMLID_3_">
	<radialGradient id="XMLID_51_" cx="29.5731" cy="95.3758" r="12.0758" gradientUnits="userSpaceOnUse">
		<stop  offset="0" style="stop-color:#4D4D4D;stop-opacity:0.4"/>
		<stop  offset="1" style="stop-color:#333333;stop-opacity:0"/>
	</radialGradient>
	<ellipse id="XMLID_1_" class="st0" cx="29.6" cy="95.4" rx="16.4" ry="4.6"/>
	<g id="XMLID_2_">
		<path id="XMLID_5_" class="st1" d="M20.7,94.8l4.7,1.9c0,0,2.2,1,3.7-0.6c1.5-1.7-2.4-3.6-2.4-3.6V81.6c-2-0.2-4-0.5-6-1V94.8z"/>
		<g id="XMLID_6_">
			<path id="XMLID_8_" class="st1" d="M32.7,81.6v11.9l4.6,1.9c0,0,1.7,1,3.2-0.6c1.5-1.7-2.8-3.6-2.8-3.6V80.7
				C36.7,81.1,34.7,81.4,32.7,81.6z"/>
			<path id="XMLID_12_" class="st2" d="M37.7,77h-5v8.5c2-0.2,4-0.5,5-0.9V77z"/>
		</g>
		<path id="XMLID_11_" class="st2" d="M20.7,79v5.5c2,0.4,4,0.8,6,1V79H20.7z"/>
	</g>
	<path id="XMLID_4_" class="st1" d="M32.2,35.6c7.5-2.1,12.9-9,12.9-17.2c0-9.9-8-17.9-17.9-17.9S-3.3,8.3,0.4,41.2
		c3,4,15.1-3.8,24.7-4.8c-1.5,6-6.2,22.8-14.5,29.8C7.3,83.4,31,82.6,32.5,82.7c1.5,0,12.6-0.3,14.1-12.5
		C45.1,52.2,35.5,39.6,32.2,35.6z"/>
	<circle id="XMLID_7_" class="st2" cx="34.9" cy="18.6" r="2"/>
</g>
</svg>
