<?xml version="1.0" encoding="utf-8"?>
<!-- Generator: Adobe Illustrator 19.0.0, SVG Export Plug-In . SVG Version: 6.00 Build 0)  -->
<svg version="1.1" id="Calque_1" xmlns="http://www.w3.org/2000/svg" xmlns:xlink="http://www.w3.org/1999/xlink" x="0px" y="0px"
	 viewBox="-26 0 46.6 100" style="enable-background:new -26 0 46.6 100;" xml:space="preserve">
<style type="text/css">
	.st0{fill:url(#XMLID_10_);}
	.st1{fill:#242322;}
	.st2{fill:#DBDBDB;}
</style>
<g id="XMLID_3_">
	
		<radialGradient id="XMLID_10_" cx="3.6" cy="4.6242" r="12.0574" gradientTransform="matrix(-1 0 0 -1 -5.4394 100)" gradientUnits="userSpaceOnUse">
		<stop  offset="0" style="stop-color:#4D4D4D;stop-opacity:0.4"/>
		<stop  offset="1" style="stop-color:#333333;stop-opacity:0"/>
	</radialGradient>
	<ellipse id="XMLID_1_" class="st0" cx="-9" cy="95.4" rx="16.4" ry="4.6"/>
	<g id="XMLID_2_">
		<path id="XMLID_5_" class="st1" d="M-0.1,80.6c-2,0.5-4,0.8-6,1v10.9c0,0-3.9,1.9-2.4,3.6c1.5,1.6,3.7,0.6,3.7,0.6l4.7-1.9
			C-0.1,94.8-0.1,80.6-0.1,80.6z"/>
		<g id="XMLID_6_">
			<path id="XMLID_8_" class="st1" d="M-17.1,80.7v10.5c0,0-4.3,1.9-2.8,3.6c1.5,1.6,3.2,0.6,3.2,0.6l4.6-1.9V81.6
				C-14.1,81.4-16.1,81.1-17.1,80.7z"/>
			<path id="XMLID_12_" d="M-17.1,84.6c1,0.4,3,0.7,5,0.9V77h-5V84.6z"/>
		</g>
		<path id="XMLID_11_" d="M-6.1,79v6.5c2-0.2,4-0.6,6-1V79H-6.1z"/>
	</g>
	<path id="XMLID_4_" class="st1" d="M-26,70.2c1.5,12.2,12.6,12.5,14.1,12.5c1.5-0.1,25.2,0.7,21.9-16.5c-8.3-7-13-23.8-14.5-29.8
		c9.6,1,21.7,8.8,24.7,4.8C23.9,8.3,3.3,0.5-6.6,0.5s-17.9,8-17.9,17.9c0,8.2,5.4,15.1,12.9,17.2C-14.9,39.6-24.5,52.2-26,70.2z"/>
	<circle id="XMLID_7_" class="st2" cx="-14.3" cy="18.6" r="2"/>
</g>
</svg>
