<?xml version="1.0" encoding="utf-8"?>
<!-- Generator: Adobe Illustrator 19.0.0, SVG Export Plug-In . SVG Version: 6.00 Build 0)  -->
<svg version="1.1" id="Calque_1" xmlns="http://www.w3.org/2000/svg" xmlns:xlink="http://www.w3.org/1999/xlink" x="0px" y="0px"
	 viewBox="0 0 500 440.5" style="enable-background:new 0 0 500 440.5;" xml:space="preserve">
<style type="text/css">
	.st0{fill:#9E9E9E;}
	.st1{fill:#FFFFFF;}
	.st2{fill:#D3D3D3;}
</style>
<g id="XMLID_16_">
	<polygon id="XMLID_8_" class="st0" points="212.7,440.5 501.5,280.5 501.5,120 332.5,216.4 212.7,408.5 	"/>
	<polygon id="XMLID_10_" class="st1" points="0,287.2 30.1,269.6 30,239.2 60.1,221.6 60,191.1 90.2,173.6 90,143.1 120.2,125.6 
		119.8,95.2 332,216.4 332,248.4 302.6,264.4 304.4,296.5 273,312.4 273,343.3 241,360.5 241,392.5 211,408.5 	"/>
	<polygon id="XMLID_9_" class="st2" points="212.7,440.5 0,317.6 0,287.2 212.7,408.5 	"/>
	<polygon id="XMLID_11_" class="st2" points="242.7,392.5 30.1,269.6 30.1,239.2 242.7,360.5 	"/>
	<polygon id="XMLID_12_" class="st2" points="272.8,344.5 60.1,221.6 60.1,191.2 272.8,312.4 	"/>
	<polygon id="XMLID_13_" class="st2" points="304.3,296.5 90.2,173.6 90.2,143.2 302.8,264.4 	"/>
	<polygon id="XMLID_14_" class="st2" points="332.9,248.4 120.2,125.6 120.2,95.2 332.9,216.4 	"/>
	<polygon id="XMLID_15_" class="st1" points="501.5,120 282.8,0 120,95.2 332.5,216.4 	"/>
</g>
</svg>
